<svg id="Layer_1" data-name="Layer 1" xmlns="http://www.w3.org/2000/svg" viewBox="0 0 991.824 939.027">
  <g>
    <g>
      <g>
        <rect x="177.403" y="627.099" width="80.326" height="23.372" fill="#f4f4f4"></rect>
        <rect x="188.19" y="627.099" width="10.525" height="23.372" fill="#292a2e" opacity="0.05"></rect>
        <rect x="203.701" y="632.179" width="43.764" height="13.85" fill="#fff"></rect>
      </g>
      <g>
        <rect x="239.08" y="612.872" width="81.445" height="23.372" transform="translate(273.373 -59.782) rotate(23.594)" fill="#f4f4f4"></rect>
        <rect x="239.08" y="612.872" width="81.445" height="23.372" transform="translate(273.373 -59.782) rotate(23.594)" fill="#292a2e" opacity="0.05"></rect>
        <rect x="296.872" y="622.658" width="10.672" height="23.372" transform="translate(279.163 -67.932) rotate(23.594)" fill="#fff"></rect>
        <rect x="250.039" y="614.671" width="44.373" height="13.85" transform="translate(271.554 -56.997) rotate(23.594)" fill="#fff"></rect>
      </g>
      <g>
        <g>
          <rect x="301.754" y="923.175" width="20.186" height="13.481" fill="#292a2e" opacity="0.05"></rect>
          <rect x="95.374" y="923.175" width="20.186" height="13.481" fill="#292a2e" opacity="0.05"></rect>
        </g>
        <rect x="76.87" y="651.567" width="263.574" height="271.152" fill="#f4f4f4"></rect>
        <rect x="76.87" y="651.567" width="263.574" height="271.152" fill="#292a2e" opacity="0.03"></rect>
        <rect x="125.714" y="651.567" width="263.574" height="271.152" fill="#f4f4f4"></rect>
        <g>
          <rect x="350.598" y="923.175" width="20.186" height="13.481" fill="#292a2e" opacity="0.05"></rect>
          <rect x="144.218" y="923.175" width="20.186" height="13.481" fill="#292a2e" opacity="0.05"></rect>
        </g>
        <rect x="135.609" y="664.266" width="243.786" height="52.094" fill="#fff" opacity="0.7"></rect>
        <rect x="135.609" y="729.111" width="243.786" height="52.094" fill="#fff" opacity="0.7"></rect>
        <rect x="135.609" y="793.954" width="243.786" height="52.094" fill="#fff" opacity="0.7"></rect>
        <circle cx="257.502" cy="690.313" r="7.289" fill="#292a2e" opacity="0.05"></circle>
        <circle cx="257.502" cy="755.158" r="7.289" fill="#292a2e" opacity="0.05"></circle>
        <circle cx="257.502" cy="820.002" r="7.289" fill="#292a2e" opacity="0.05"></circle>
        <g>
          <rect x="135.609" y="860.26" width="243.786" height="52.094" fill="#fff" opacity="0.7"></rect>
          <circle cx="257.502" cy="886.307" r="7.289" fill="#292a2e" opacity="0.05"></circle>
        </g>
      </g>
    </g>
    <g>
      <g>
        <path d="M.7,938.524h990.42a.7.7,0,0,0,0-1.4H.7a.7.7,0,1,0,0,1.4Z" fill="#292a2e"></path>
        <g opacity="0.65">
          <path d="M.7,938.524h990.42a.7.7,0,0,0,0-1.4H.7a.7.7,0,1,0,0,1.4Z" fill="#292a2e"></path>
        </g>
      </g>
      <g>
        <g>
          <polygon points="924.101 938.116 926.065 937.738 895.369 632.707 893.405 633.085 924.101 938.116" fill="#494949"></polygon>
          <polygon points="809.803 938.116 811.767 937.738 781.072 632.707 779.108 633.085 809.803 938.116" fill="#494949"></polygon>
          <g>
            <polygon points="557.155 938.116 555.191 937.738 585.887 632.707 587.851 633.085 557.155 938.116" fill="#494949"></polygon>
            <polygon points="671.453 938.116 669.489 937.738 700.184 632.707 702.148 633.085 671.453 938.116" fill="#494949"></polygon>
          </g>
          <rect x="636.434" y="564.744" width="135.496" height="2" transform="translate(50.216 1188.854) rotate(-82.395)" fill="#494949"></rect>
          <rect x="842.258" y="564.744" width="135.496" height="2" transform="translate(228.799 1392.867) rotate(-82.395)" fill="#494949"></rect>
          <g>
            <rect x="684.565" y="623.061" width="220.99" height="19.671" rx="9.835" transform="translate(1590.12 1265.792) rotate(180)" fill="#292a2e"></rect>
            <rect x="684.565" y="623.061" width="220.99" height="19.671" rx="9.835" transform="translate(1590.12 1265.792) rotate(180)" fill="#fff" opacity="0.8"></rect>
            <path d="M683.565,632.9A10.847,10.847,0,0,1,694.4,622.061H895.72a10.835,10.835,0,0,1,0,21.67H694.4A10.848,10.848,0,0,1,683.565,632.9Zm10.835-8.835a8.835,8.835,0,1,0,0,17.67H895.72a8.835,8.835,0,0,0,0-17.67Z" fill="#292a2e"></path>
          </g>
          <g>
            <rect x="574.07" y="623.061" width="220.99" height="19.671" rx="9.835" transform="translate(1369.13 1265.792) rotate(-180)" fill="#fff"></rect>
            <path d="M573.069,632.9a10.848,10.848,0,0,1,10.836-10.835h201.32a10.835,10.835,0,0,1,0,21.67H583.905A10.849,10.849,0,0,1,573.069,632.9Zm10.836-8.835a8.835,8.835,0,1,0,0,17.67h201.32a8.835,8.835,0,0,0,0-17.67Z" fill="#292a2e"></path>
          </g>
          <g>
            <path d="M723.189,498.591H918.436a13.145,13.145,0,0,0,13.035-11.447l12.914-99.18a13.144,13.144,0,0,0-13.034-14.842H736.1a13.146,13.146,0,0,0-13.035,11.448l-12.915,99.179A13.145,13.145,0,0,0,723.189,498.591Z" fill="#292a2e"></path>
            <path d="M723.189,498.591H918.436a13.145,13.145,0,0,0,13.035-11.447l12.914-99.18a13.144,13.144,0,0,0-13.034-14.842H736.1a13.146,13.146,0,0,0-13.035,11.448l-12.915,99.179A13.145,13.145,0,0,0,723.189,498.591Z" fill="#fff" opacity="0.8"></path>
            <path d="M712.561,494.78a14.143,14.143,0,0,1-3.4-11.159l12.915-99.18A14.18,14.18,0,0,1,736.1,372.122H931.351a14.144,14.144,0,0,1,14.026,15.971l-12.915,99.18a14.179,14.179,0,0,1-14.026,12.318H723.189A14.145,14.145,0,0,1,712.561,494.78ZM736.1,374.122A12.175,12.175,0,0,0,724.061,384.7l-12.915,99.18a12.144,12.144,0,0,0,12.043,13.712H918.436a12.174,12.174,0,0,0,12.043-10.576l12.914-99.18a12.144,12.144,0,0,0-12.042-13.713Z" fill="#292a2e"></path>
          </g>
          <g>
            <path d="M712.148,498.591H907.4a13.145,13.145,0,0,0,13.035-11.447l12.915-99.18a13.145,13.145,0,0,0-13.035-14.842H725.063a13.145,13.145,0,0,0-13.034,11.448l-12.915,99.179A13.144,13.144,0,0,0,712.148,498.591Z" fill="#fff"></path>
            <path d="M701.52,494.78a14.147,14.147,0,0,1-3.4-11.159l12.915-99.18a14.181,14.181,0,0,1,14.026-12.319H920.31a14.144,14.144,0,0,1,14.026,15.971l-12.914,99.18A14.181,14.181,0,0,1,907.4,499.591H712.148A14.147,14.147,0,0,1,701.52,494.78Zm23.543-120.658A12.177,12.177,0,0,0,713.02,384.7l-12.915,99.18a12.144,12.144,0,0,0,12.043,13.712H907.4a12.174,12.174,0,0,0,12.043-10.576l12.915-99.179a12.146,12.146,0,0,0-12.043-13.714Z" fill="#292a2e"></path>
          </g>
        </g>
        <g>
          <g>
            <path d="M739.873,213.452s-11.526-11.463-11.651-34.232c-.1-17.63,14.318-4.243,14.318-4.243s.054-12.695,8.965-10.213,12.208,16.276,12.208,16.276" fill="#0c0c0c"></path>
            <path d="M798.261,172.655s44.412,11.006,19.751,69.852l-4.025-.279-8.17-.567" fill="#0c0c0c"></path>
            <path id="sk" d="M741.257,303.665c.2-.027,2.42,36.8,45.206,33.592,29.62-2.219,40.181-33.645,40.86-33.645-3.194-.678-7.14-1.708-8.709-2.062A17.279,17.279,0,0,1,805.4,287.018c-.867-5.22.6-31.928.151-37.21l-45.467,10.149c.635,11.155,5.082,37.016-10.5,41.593C746.983,302.307,744.19,303,741.257,303.665Z" fill="#E98862"></path>
            <path id="sh" d="M759.441,290.981a32.865,32.865,0,0,0,1.368-7.057,75.216,75.216,0,0,0-.3-16.412,49.849,49.849,0,0,0,25.129-11.01c.844,3.118,5.487,16.742,4.2,19.7C787.413,281.809,775.994,290.981,759.441,290.981Z" fill="#0c0c0c" opacity="0.52"></path>
            <path d="M766.241,280.239c17.99.841,40.8-7.474,44.409-31.555l3.259-21.729c3.611-24.081-6.11-45.5-28.783-48.9h0c-22.673-3.4-42.548,13.581-46.159,37.662l-1.443,9.619a73.5,73.5,0,0,0-.633,9.99c-.022,8.828-.022,22.256,4.641,31.978C745.933,276.482,754.748,279.7,766.241,280.239Z" fill="#E98862"></path>
            <path d="M761.016,257.06a23.649,23.649,0,0,1-10.391-3.5.579.579,0,1,1,.594-.993c6.792,4.065,13.4,4.511,19.119,1.293a3.743,3.743,0,0,1,.357-.187.579.579,0,0,1,.434,1.073c-.045.02-.119.064-.223.122A17.34,17.34,0,0,1,761.016,257.06Z" fill="#0c0c0c"></path>
            <path d="M760.443,262.518a11.837,11.837,0,0,1-1.981-.32.578.578,0,1,1,.277-1.123c3.912.965,6.056-.594,6.146-.661a.578.578,0,0,1,.7.921A7.841,7.841,0,0,1,760.443,262.518Z" fill="#0c0c0c"></path>
            <circle cx="745.433" cy="223.405" r="2.824" fill="#0c0c0c"></circle>
            <circle cx="771.692" cy="225.156" r="2.824" fill="#0c0c0c"></circle>
            <path d="M808.142,255.809c6.89,1.033,13.582-5.5,14.615-12.391s-3.983-11.528-10.873-12.561l-4.243,4.084-5.423,19.98Z" fill="#E98862"></path>
            <g>
              <path d="M802.794,243.777s2.345-34.454-7.717-37.98c-6.7-2.348-24.757,5.141-39.837.067-6.6-2.22-13.257-1.424-14.35,1.686-.432,1.231-2.159-17.553,10.342-29.918,9.953-9.845,38.018-9.165,50.1-3.835,33.45,14.758,11.77,58.758,11.77,58.758l-3.165,11.555Z" fill="#0c0c0c"></path>
              <path d="M757.947,248.433l-.044,0c-2.221-.327-5.911-1.123-5.668-2.785.2-1.377,6.161-15.685,6.841-17.311a.572.572,0,1,1,1.055.44c-2.644,6.336-6.626,16.1-6.764,17.037.161.425,2.4,1.148,4.7,1.488a.572.572,0,0,1-.122,1.136Z" fill="#0c0c0c"></path>
              <path d="M754.914,214.139a13.586,13.586,0,0,0-7.144-.975,12,12,0,0,0-3.445.977,14.07,14.07,0,0,0-3.017,1.844.833.833,0,0,0,.955,1.363l.057-.037a12.233,12.233,0,0,1,2.716-1.434,10.015,10.015,0,0,1,2.951-.641,11.349,11.349,0,0,1,5.778,1.123l.075.039a1.251,1.251,0,0,0,1.146-2.225Z" fill="#0c0c0c"></path>
              <path d="M771.274,217.81a11.329,11.329,0,0,1,5.878-.314,9.989,9.989,0,0,1,2.834,1.042,12.268,12.268,0,0,1,2.492,1.795l.049.043a.833.833,0,0,0,1.137-1.216,14.077,14.077,0,0,0-2.734-2.243,12.008,12.008,0,0,0-3.276-1.444,13.6,13.6,0,0,0-7.211-.021,1.251,1.251,0,0,0,.675,2.41l.073-.023Z" fill="#0c0c0c"></path>
            </g>
            <ellipse cx="766.169" cy="177.868" rx="14.04" ry="9.539" transform="translate(341.583 839.97) rotate(-70.399)" fill="#0c0c0c"></ellipse>
          </g>
          <g>
            <path d="M464.375,886.277s-5.362,27.793-31.384,29.342-20.38,22.28-20.38,22.28h99.444V888.215Z" fill="#44BE75"></path>
            <path d="M653.563,868.729s7.457,27.306-15.21,40.183S629.9,937.9,629.9,937.9L719.133,894,697.2,849.421Z" fill="#44BE75"></path>
            <g>
              <path d="M708.831,861.016l-75.25-237.39h136.4c27.4,0,38.822-23.235,38.822-50.633s-26.935-51.416-54.334-51.416H570.379c-16.711,0-35.449,10.22-44.62,24.19s-6.693,35.617-.048,50.951l120.5,292.667" fill="#262626"></path>
              <path d="M708.831,861.016l-75.25-237.39h136.4c27.4,0,38.822-23.235,38.822-50.633s-26.935-51.416-54.334-51.416H570.379c-16.711,0-35.449,10.22-44.62,24.19s-6.693,35.617-.048,50.951l120.5,292.667" fill="#0a0a0a" opacity="0.8"></path>
              <path d="M517.774,912.088,643.593,623.626l165.209-.011c38.711-3.035,56.44-24.25,55.876-51.642-.556-27.045-14.25-53.758-41.173-53.758H600.836c-19.92.409-35.592,22.423-42.982,40.925l-104.6,335.288" fill="#262626"></path>
              <path d="M875.949,518.546s7.337,47.846-4.293,74.447c-14.519,33.21-68.947,30.623-68.947,30.623l3.067-105.4Z" fill="#262626"></path>
            </g>
          </g>
          <path d="M553.12,517.605l116.7-24.182a29.529,29.529,0,0,0,21.616-18.438l45.9-120.953a29.529,29.529,0,1,0-55.215-20.954l-40.152,105.8L541.137,459.775S551.1,518.024,553.12,517.605Z" fill="#44BE75"></path>
          <path d="M688.1,384.747c1.347,15.833,10.9,114.61,12.2,134.112H875.872c1.009-17.589,4.284-92.266,8.11-126.661,3.651-32.822,4.976-51.552.77-61.751-7.418-17.99-25.981-24.463-41.971-26.628-9.763-1.321-24.448-2.269-24.448-2.269S817.09,326.7,787.441,328.1c-40.359,1.9-37.664-26.553-37.864-26.553-6.538,0-42.128,4.755-51.027,10.555-12.569,8.193-16.284,19.357-16.431,29.614C681.95,353.53,686.568,366.791,688.1,384.747Z" fill="#44BE75"></path>
          <path d="M695,465.459l.042,0a.5.5,0,0,0,.456-.54l-4.558-54.754a.487.487,0,0,0-.539-.457.5.5,0,0,0-.457.54L694.5,465A.5.5,0,0,0,695,465.459Z" fill="#0c0c0c"></path>
          <g>
            <path d="M611.377,498.321,572.853,379.9A10.365,10.365,0,0,0,563,372.739H406.044a10.365,10.365,0,0,0-9.857,13.572l38.525,118.423a10.364,10.364,0,0,0,9.857,7.159H601.52A10.365,10.365,0,0,0,611.377,498.321Z" fill="#292a2e"></path>
            <path d="M611.377,498.321,572.853,379.9A10.365,10.365,0,0,0,563,372.739H406.044a10.365,10.365,0,0,0-9.857,13.572l38.525,118.423a10.364,10.364,0,0,0,9.857,7.159H601.52A10.365,10.365,0,0,0,611.377,498.321Z" fill="#292a2e"></path>
            <rect x="575.211" y="502.29" width="114.544" height="9.602" rx="4.74" fill="#292a2e"></rect>
            <rect x="575.211" y="502.29" width="114.544" height="9.602" rx="4.74" fill="#292a2e"></rect>
            <circle cx="503.782" cy="448.093" r="16.461" fill="#fff"></circle>
          </g>
          <g id="b_4_ha">
            <path d="M620.159,470.58l26.221-9.191-3.764-.26a4.807,4.807,0,0,1-4.38-4.888,4.632,4.632,0,0,1,5.128-4.347l46.391,4.93-1.205,14.908a23.321,23.321,0,0,1-16.27,20.374l-20.09,6.258a4.743,4.743,0,0,1-5.609-2.133,4.633,4.633,0,0,1,.728-5.441.424.424,0,0,1-.139-.175.43.43,0,0,1,.058-.4l-3.7,1.161a4.807,4.807,0,0,1-5.973-2.72,4.628,4.628,0,0,1,2-5.611.388.388,0,0,1-.114-.092l-1.522.477A4.742,4.742,0,0,1,632.3,481.3a4.635,4.635,0,0,1,1.68-6.2.382.382,0,0,1-.014-.094l-10.92,3.828a4.368,4.368,0,0,1-2.889-8.245Z" fill="#E98862"></path>
            <path id="b_4_ha_sh" d="M634.4,475.424a.437.437,0,0,0,.149-.026l10.562-3.841a.435.435,0,0,0-.3-.818l-10.563,3.841a.435.435,0,0,0,.149.844Z" fill="#0a0a0a" opacity="0.2"></path>
            <path id="b_4_ha_sh-2" data-name="b_4_ha_sh" d="M639.737,483.1a.435.435,0,0,0,.146-.025l8.325-2.955a.435.435,0,1,0-.29-.82l-8.326,2.955a.435.435,0,0,0,.145.845Z" fill="#0a0a0a" opacity="0.2"></path>
            <path id="b_4_ha_sh-3" data-name="b_4_ha_sh" d="M647.577,490.9a.447.447,0,0,0,.155-.029l3.9-1.487a.435.435,0,0,0-.311-.813l-3.9,1.488a.435.435,0,0,0,.155.841Z" fill="#0a0a0a" opacity="0.2"></path>
          </g>
          <path d="M669.222,448l110-.074,41.616-101.512,62.077,26.1L830.993,492.994l-.507,1.2a31.138,31.138,0,0,1-30.4,18.692l-132.528-7.83Z" fill="#44BE75"></path>
          <path d="M801.91,513.438a31.739,31.739,0,0,0,29.035-19.046l.508-1.2,44.24-102.656-.918-.4L830.025,494a30.731,30.731,0,0,1-29.91,18.387l-132.043-7.8,1.636-56.083,109.849-.074,32-78.052-.926-.379-31.743,77.431-110.15.075-1.693,58.023.485.029,132.528,7.829C800.675,513.42,801.3,513.438,801.91,513.438Z" fill="#0c0c0c"></path>
        </g>
        <g>
          <rect x="11.006" y="729.252" width="419.473" height="2" transform="translate(-527.996 876.489) rotate(-84.232)" fill="#494949"></rect>
          <g>
            <g>
              <rect x="943.359" y="520.515" width="2" height="419.473" transform="translate(-68.652 98.674) rotate(-5.772)" fill="#494949"></rect>
              <rect x="769.061" y="520.515" width="2" height="419.473" transform="translate(-69.535 81.145) rotate(-5.772)" fill="#494949"></rect>
            </g>
            <rect x="-163.291" y="729.252" width="419.473" height="2" transform="translate(-684.777 703.073) rotate(-84.232)" fill="#494949"></rect>
          </g>
          <g>
            <rect x="20.317" y="513.383" width="947.391" height="16.387" rx="8.194" transform="translate(988.026 1043.154) rotate(180)" fill="#292a2e"></rect>
            <rect x="20.317" y="513.383" width="947.391" height="16.387" rx="8.194" transform="translate(988.026 1043.154) rotate(180)" fill="#fff" opacity="0.8"></rect>
            <path d="M19.317,521.577a9.2,9.2,0,0,1,9.194-9.194h931a9.194,9.194,0,1,1,0,18.388h-931A9.2,9.2,0,0,1,19.317,521.577Zm9.194-7.194a7.194,7.194,0,0,0,0,14.388h931a7.194,7.194,0,1,0,0-14.388Z" fill="#292a2e"></path>
          </g>
          <g>
            <rect x="20.317" y="513.383" width="766.43" height="16.387" rx="8.194" transform="translate(807.065 1043.154) rotate(180)" fill="#fff"></rect>
            <path d="M19.317,521.577a9.2,9.2,0,0,1,9.194-9.194H778.554a9.194,9.194,0,0,1,0,18.388H28.511A9.2,9.2,0,0,1,19.317,521.577Zm9.194-7.194a7.194,7.194,0,0,0,0,14.388H778.554a7.194,7.194,0,0,0,0-14.388Z" fill="#292a2e"></path>
          </g>
        </g>
      </g>
    </g>
    <g>
      <g>
        <path d="M136.033,858.8s-18.937,27.871-2.153,47.937-2.236,30.218-2.236,30.218L63.182,864.346l36.274-34.205Z" fill="#44BE75"></path>
        <path d="M235.414,410.676s63.923,219.861,48.857,252c-14.812,31.6-150,216.191-150,216.191L85.654,836.5,205.893,641.506S170.3,528.9,151.057,469.845c-11.6-35.6-31.118-34.466-32.972-71.862h0Z" fill="#262626"></path>
        <polygon points="164.635 658.526 180.448 640.519 176.332 746.223 158.708 762.974 164.635 658.526" fill="#0a0a0a"></polygon>
        <path d="M162.016,503.69s-7.571-44.941.526-35.315c26.329,31.3,28.95,127.618,28.95,127.618Z" fill="#0a0a0a"></path>
        <path d="M206.248,883.943s5.381,27.891,31.5,29.445,20.451,22.358,20.451,22.358H158.4V885.888Z" fill="#44BE75"></path>
        <path d="M57.249,405.167s-.442-2.055-.7,9.961c-.185,8.485-3.631,38.518,8.283,85.888C87.15,589.767,154,901.743,154,901.743l65.575-.551L157.735,402.44Z" fill="#262626"></path>
      </g>
      <g>
        <path d="M56.234,405.527l-.214.012S56.174,401.408,56.234,405.527Z" fill="#333"></path>
        <g>
          <path d="M415.191,208.936a4.228,4.228,0,0,0-4.319-2.287.37.37,0,0,0-.048-.222.374.374,0,0,0-.347-.141l2.93-2.1a4.4,4.4,0,0,0,1.45-5.592A4.234,4.234,0,0,0,409.5,196.7c.007-.041-.021-.081-.027-.123l1.2-.863a4.34,4.34,0,0,0,1.525-5.275,4.24,4.24,0,0,0-6.335-1.7l-2.777,1.991c-.008-.017,0-.036-.011-.051s-.041-.021-.057-.038a4.233,4.233,0,0,0,.279-5.275c-1.311-2.11-4.338-1.679-6.134-.392l-16.348,11.293,2.922-4.92a4.4,4.4,0,0,0-1.163-5.891,4.237,4.237,0,0,0-6,1.357L360.627,213.67a14.08,14.08,0,0,0,4.573,19.087h0a21.339,21.339,0,0,0,23.848-.685l24.688-17.695A4.537,4.537,0,0,0,415.191,208.936Z" fill="#E98862"></path>
          <g opacity="0.25">
            <path d="M386.912,201.886a.391.391,0,0,0,.539.092l15.533-10.759a.391.391,0,1,0-.446-.643l-15.533,10.759a.391.391,0,0,0-.1.544Z" fill="#0c0c0c"></path>
          </g>
          <g opacity="0.25">
            <path d="M391.468,208.868a.392.392,0,0,0,.539.091l17.335-12.007a.391.391,0,0,0,.1-.544.406.406,0,0,0-.544-.1l-17.335,12.007a.391.391,0,0,0-.1.544Z" fill="#0c0c0c"></path>
          </g>
          <g opacity="0.25">
            <path d="M396.359,216.458a.392.392,0,0,0,.539.091l13.828-9.577a.391.391,0,0,0-.446-.643l-13.828,9.577a.391.391,0,0,0-.1.544Z" fill="#0c0c0c"></path>
          </g>
        </g>
        <path d="M351.212,207.552l-46.855,79.8-57.173-74.99L199.7,255.168,280.788,360.18l.532.747a32.418,32.418,0,0,0,54.87-4.016l66.629-120.659Z" fill="#44BE75"></path>
        <path d="M299.763,296.948a.595.595,0,0,1-.53-.866l4.593-9a.6.6,0,0,1,1.06.542l-4.593,9A.6.6,0,0,1,299.763,296.948Z" fill="#0c0c0c"></path>
        <rect x="231.143" y="298.939" width="25.245" height="1.19" transform="translate(-69.099 525.936) rotate(-86.752)" fill="#0c0c0c"></rect>
        <g>
          <g>
            <g>
              <path d="M92.908,104.488s-2.2,28.055-8.63,38.168C65.753,171.771,60.1,204.7,78.114,222.146s134.161,19.03,143.419-20.511c7.794-33.289-8.062-37.061-11.612-64.638-1.606-12.478-6.118-38.656-6.118-38.656" fill="#0a0a0a"></path>
              <path id="sk-2" data-name="sk" d="M191.964,195.315c-.2-.027-2.426,36.894-45.316,33.675-29.693-2.224-40.281-33.728-40.961-33.728,3.2-.68,8.592-1.669,10.014-2.428,4.676-2.513,10.461-5.127,11.968-14.207.869-5.233-.605-32.006-.151-37.3L173.1,151.5c-.637,11.183-5.094,37.108,10.529,41.7C186.224,193.954,189.024,194.652,191.964,195.315Z" fill="#E98862"></path>
              <path id="sh-2" data-name="sh" d="M173.735,182.6a33.077,33.077,0,0,1-1.371-7.074,75.463,75.463,0,0,1,.3-16.453,49.981,49.981,0,0,1-25.191-11.037c-.846,3.126-5.5,16.783-4.212,19.754C145.7,173.405,157.142,182.6,173.735,182.6Z" fill="#0c0c0c" opacity="0.52"></path>
              <path d="M167.694,170.98c-17.988,1.53-41.154-5.926-45.693-29.911l-4.1-21.641c-4.539-23.985,4.379-45.812,26.961-50.086h0c22.583-4.274,43.142,11.975,47.681,35.96l1.813,9.581C196.1,124.086,199.79,168.249,167.694,170.98Z" fill="#E98862"></path>
              <circle cx="187.924" cy="113.097" r="2.831" fill="#0c0c0c"></circle>
              <circle cx="158.922" cy="116.97" r="2.831" fill="#0c0c0c"></circle>
              <path d="M174.838,137.724a.332.332,0,0,0,.044-.006,25.388,25.388,0,0,0,2.708-.69c1.328-.427,3.067-1.134,2.841-2.333-.258-1.367-6.793-15.4-7.537-17a.58.58,0,1,0-1.051.491c2.787,5.977,7.274,15.805,7.448,16.725-.15.426-2.354,1.237-4.625,1.667a.58.58,0,0,0,.172,1.146Z" fill="#0c0c0c"></path>
              <path d="M171.494,148.079a23.707,23.707,0,0,0,10.275-3.9.58.58,0,0,0-.633-.972c-6.648,4.331-13.254,5.032-19.1,2.026a3.924,3.924,0,0,0-.364-.173.58.58,0,0,0-.394,1.091c.046.019.122.06.228.115A17.385,17.385,0,0,0,171.494,148.079Z" fill="#0c0c0c"></path>
              <path d="M99.839,126.97l20.244-3.711c15.331-6.2,19.968-32.745,19.968-32.745s18.622,18.15,63.752,7.827c0,0-9.049-62.937-75.721-44.637-21.5,5.9-36.928,27.565-35.006,56.519C94.423,130.514,99.839,126.97,99.839,126.97Z" fill="#0a0a0a"></path>
              <path d="M124.786,148.111c-6.863,1.3-13.815-4.99-15.114-11.853s3.548-11.7,10.411-13l4.406,3.929,6.2,19.806Z" fill="#E98862"></path>
              <path d="M177.029,106.225a13.29,13.29,0,0,1,6.7-2.114,11.745,11.745,0,0,1,3.481.368,13.85,13.85,0,0,1,3.225,1.278.606.606,0,0,1-.526,1.091l-.044-.02a12.529,12.529,0,0,0-2.96-1.018,10.262,10.262,0,0,0-3.086-.185,11.651,11.651,0,0,0-5.7,2.058l-.054.04A.91.91,0,0,1,177,106.249Z" fill="#0c0c0c"></path>
              <path d="M158.975,110.476a11.641,11.641,0,0,0-6.056.139,10.3,10.3,0,0,0-2.811,1.287,12.49,12.49,0,0,0-2.392,2.02l-.032.032a.606.606,0,0,1-.886-.826,13.8,13.8,0,0,1,2.545-2.356,11.742,11.742,0,0,1,3.113-1.6,13.293,13.293,0,0,1,7.008-.448.91.91,0,0,1-.383,1.78l-.037-.009Z" fill="#0c0c0c"></path>
              <path d="M172.277,153.525a11.863,11.863,0,0,0,1.972-.4.58.58,0,1,0-.321-1.115c-3.881,1.117-6.088-.363-6.181-.427a.58.58,0,0,0-.667.95A7.862,7.862,0,0,0,172.277,153.525Z" fill="#0c0c0c"></path>
              <path d="M120.127,123l-.2-.56c25.649-9.208,19.377-34.378,19.311-34.631l.575-.151C139.88,87.918,146.3,113.608,120.127,123Z" fill="#0c0c0c"></path>
            </g>
            <ellipse cx="156.214" cy="135.557" rx="5.393" ry="3.956" transform="translate(-13.605 17.49) rotate(-6.141)" fill="#0c0c0c" opacity="0.1"></ellipse>
            <path d="M187.982,131.181c.24,2.169,2.829,3.67,5.79,3.355a7.417,7.417,0,0,0,1.506-.323c.167-2.581.2-5.065.155-7.366a6.808,6.808,0,0,0-2.511-.176C189.96,126.985,187.75,129,187.982,131.181Z" fill="#0c0c0c" opacity="0.1"></path>
          </g>
          <path d="M245.253,276.6c-1.351,15.871-7.923,114.891-9.221,134.441H56.605c-1.011-17.632-5.139-94.732-8.974-129.212-3.66-32.9-10.842-49.375-5.578-59.1,8.6-15.9,32.109-25.084,48.137-27.254,9.788-1.325,24.509-2.275,24.509-2.275s1.247,25.215,30.967,26.618c40.459,1.909,37.757-26.618,37.958-26.618,6.554,0,44,4.149,53.157,9.579C261.743,217.556,248.121,242.962,245.253,276.6Z" fill="#44BE75"></path>
          <path d="M356.814,287.684l-16.567,80.523a7.3,7.3,0,0,1-7.085,5.827l-114.078.971a7.3,7.3,0,0,1-7.21-8.768l16.568-80.523a7.3,7.3,0,0,1,7.085-5.827l114.078-.971A7.3,7.3,0,0,1,356.814,287.684Z" fill="#292a2e"></path>
          <g>
            <path d="M250.439,344.881a4.4,4.4,0,0,1-3.536,4.571l-3.511.774a.4.4,0,0,1,.261.274.334.334,0,0,1-.047.214,4.22,4.22,0,0,1,3.071,3.809,4.536,4.536,0,0,1-3.464,4.429l-29.655,6.583a21.052,21.052,0,0,1-4.619.512,21.342,21.342,0,0,1-17.583-9.25,14.069,14.069,0,0,1,3.286-19.345l25.226-18.44a4.243,4.243,0,0,1,1.881-.774l-2.322,11.274.619-.143.131-.024,19.346-3.941c2.154-.476,5.107.31,5.488,2.762a4.257,4.257,0,0,1-2.334,4.75c.012.012.036.024.036.048s-.012.036-.012.059l3.345-.738a4.239,4.239,0,0,1,5.155,4.048,4.337,4.337,0,0,1-3.476,4.25l-1.441.321c-.011.048,0,.1-.023.131A4.227,4.227,0,0,1,250.439,344.881Z" fill="#E98862"></path>
            <g opacity="0.25">
              <path d="M223.443,336.931a.392.392,0,0,0,.46.3l18.51-3.8a.391.391,0,1,0-.158-.766l-18.51,3.8a.39.39,0,0,0-.3.461Z" fill="#0c0c0c"></path>
            </g>
            <g opacity="0.25">
              <path d="M224.892,345.141a.391.391,0,0,0,.46.295l20.657-4.236a.391.391,0,0,0,.3-.462.4.4,0,0,0-.462-.3l-20.657,4.236a.392.392,0,0,0-.3.462Z" fill="#0c0c0c"></path>
            </g>
            <g opacity="0.25">
              <path d="M226.41,354.042a.391.391,0,0,0,.46.3l16.477-3.379a.391.391,0,1,0-.157-.766l-16.478,3.379a.391.391,0,0,0-.3.462Z" fill="#0c0c0c"></path>
            </g>
          </g>
          <path id="b_4_b" d="M211.722,377.269,50.836,406.343a32.685,32.685,0,0,1-35.768-37.915L37.592,234.551A32.684,32.684,0,1,1,102.054,245.4L86.7,337.556l117.953-14.813Z" fill="#44BE75"></path>
          <g id="b_4_b-2" data-name="b_4_b">
            <path d="M50.835,406.938a.6.6,0,0,1-.1-1.181l160.328-28.973-6.924-53.376L86.77,338.147a.586.586,0,0,1-.5-.178.592.592,0,0,1-.158-.51l9.763-58.9a.588.588,0,0,1,.685-.489.594.594,0,0,1,.489.685l-9.633,58.113,117.161-14.714a.6.6,0,0,1,.665.514l7.073,54.526a.6.6,0,0,1-.484.662L50.942,406.929A.644.644,0,0,1,50.835,406.938Z" fill="#0c0c0c"></path>
          </g>
          <rect x="76.281" y="337.792" width="10.481" height="1.191" transform="translate(-52.463 17.14) rotate(-9.095)" fill="#0c0c0c"></rect>
        </g>
      </g>
    </g>
    <g id="b_1_idea">
      <path id="b_1_idea-2" data-name="b_1_idea" d="M631.92,90.887A90.783,90.783,0,0,0,539.042.024C489.905,1.129,450.215,41.9,450.355,91.05a90.507,90.507,0,0,0,30.084,67.219c20.324,18.281,32.39,43.993,32.358,71.329v.1l56.36.065v-.1c.031-27.3,12.093-53,32.453-71.194A90.506,90.506,0,0,0,631.92,90.887Z" fill="#FFF281"></path>
      <path d="M568.3,99.9c-.933-1.2-2.555-1.946-4.818-2.2-3.836-.429-8.216,1.744-11.979,5.978l-.365.4-.284-.454a16.635,16.635,0,0,0-1.719-2.311c-2.709-3.034-7.591-6.132-15.5-3.691a18.083,18.083,0,0,0-7.145,4.015l-.276.26-.275-.26a13.257,13.257,0,0,0-2.053-1.533c-4.444-2.709-9.4-2.06-12.773-1.038a4.012,4.012,0,0,0-2.782,4.526l22.092,126.261a.811.811,0,0,0,1.6-.276L509.927,103.32a2.388,2.388,0,0,1,1.654-2.7c3.058-.924,7.526-1.525,11.46.876a11.416,11.416,0,0,1,1.809,1.354l.276.252-.228.292a14.8,14.8,0,0,0-3,8.613c-.211,5.288,2.084,10.576,5.117,11.776a3.459,3.459,0,0,0,3.544-.559c1.03-.844,2.6-3.074,1.59-8.516-.9-4.793-2.449-8.6-4.615-11.338l-.235-.292.276-.26a16.425,16.425,0,0,1,6.536-3.642c5.605-1.727,10.382-.624,13.805,3.22a15.52,15.52,0,0,1,1.995,2.831l.129.227-.154.211c-.3.4-.592.811-.876,1.233-3.276,4.866-5.888,11.792-3.876,15.507a4.274,4.274,0,0,0,4.079,2.2h.073c1.671-.024,3.074-1.135,3.942-3.114,1.7-3.869,1.2-10.43-1.176-15.612l-.106-.227.163-.195c3.284-3.974,7.015-6.188,10.356-6.188.284,0,.56.016.836.04,4.266.487,4.2,2.7,4.185,2.952L549.448,229.63a.81.81,0,0,0,.69.916.839.839,0,0,0,.916-.689l18.029-127.348A3.632,3.632,0,0,0,568.3,99.9ZM530.551,115c.892,4.793-.414,6.472-1.022,6.967a1.868,1.868,0,0,1-1.208.454,2,2,0,0,1-.706-.138c-2.092-.836-4.3-5.231-4.1-10.211a13.758,13.758,0,0,1,2.385-7.316l.316-.454.341.446A24.85,24.85,0,0,1,530.551,115Zm21.192,5.839c-.616,1.4-1.451,2.125-2.481,2.141h-.154a2.569,2.569,0,0,1-2.547-1.346c-1.4-2.595.227-8.54,3.8-13.828l.438-.649.324.665C552.855,112.355,553.114,117.708,551.743,120.838Z" fill="#fff"></path>
      <path id="b_1_idea-3" data-name="b_1_idea" d="M512.778,229.73h56.36a0,0,0,0,1,0,0v3.294a28.18,28.18,0,0,1-28.18,28.18h0a28.18,28.18,0,0,1-28.18-28.18V229.73A0,0,0,0,1,512.778,229.73Z" transform="matrix(1, 0.001, -0.001, 1, 0.284, -0.625)" fill="#262626"></path>
    </g>
  </g>
</svg>