<svg xmlns="http://www.w3.org/2000/svg" xmlns:xlink="http://www.w3.org/1999/xlink" width="23.284" height="26.492" viewBox="0 0 23.284 26.492">
  <defs>
    <clipPath id="clip-path">
      <rect id="Rectangle_261" data-name="Rectangle 261" width="23.284" height="26.492" transform="translate(0 0)" fill="#e40246"/>
    </clipPath>
  </defs>
  <g id="Group_1008" data-name="Group 1008" transform="translate(0 0)">
    <g id="Group_1007" data-name="Group 1007" transform="translate(0 0)" clip-path="url(#clip-path)">
      <path id="Path_7199" data-name="Path 7199" d="M17.074,26.492H0Q0,17.556.008,8.62A9.346,9.346,0,0,1,.162,6.957,8.5,8.5,0,0,1,9.646.086a8.324,8.324,0,0,1,7.006,5.878,17.546,17.546,0,0,1,.442,1.841h3.085V7.517c0-.879-.006-1.759,0-2.638a.369.369,0,0,0-.245-.405,2.311,2.311,0,0,1-1.294-2.427A2.4,2.4,0,0,1,20.7.014a2.344,2.344,0,0,1,2.491,1.707,2.3,2.3,0,0,1-1.2,2.74.407.407,0,0,0-.267.445q.012,2.638,0,5.277a2.263,2.263,0,0,1-1.858,2.232,10.688,10.688,0,0,1-1.546.057c-.411.007-.821,0-1.25,0ZM15.5,24.927V13.544l-.155.2a8.468,8.468,0,0,1-4.237,2.987c-.221.07-.3.165-.211.407h3.059v1.545h-3.1v1.536H6.21v-.291c0-.957,0-1.913,0-2.87a.279.279,0,0,0-.233-.324,8.471,8.471,0,0,1-4.274-3.021c-.036-.048-.082-.089-.135-.146V24.922H6.315a2.3,2.3,0,0,1,.92-2.678,2.157,2.157,0,0,1,2.527-.051,2.307,2.307,0,0,1,1,2.735ZM15.235,7.809c-.787-1.241-4.318-2.568-5.906-2.245V7.809Zm-7.487-2.3c-.443.046-.87.076-1.293.139A9.389,9.389,0,0,0,3,6.772,3.455,3.455,0,0,0,1.829,7.8H7.748Zm1.575,6.157a11.82,11.82,0,0,0,3.413-.632,5.923,5.923,0,0,0,2.1-1.177c.146-.134.266-.3.418-.465H9.323ZM1.869,9.381l-.029.09c1.606,1.668,3.719,2,5.9,2.215V9.381Zm12.786-4.12A6.945,6.945,0,0,0,9.327,1.6V3.947a13.352,13.352,0,0,1,5.328,1.314M2.408,5.3A12.867,12.867,0,0,1,7.75,3.944V1.623A6.84,6.84,0,0,0,2.408,5.3M7.749,15.534V13.24a13.4,13.4,0,0,1-5.313-1.305,6.957,6.957,0,0,0,5.313,3.6m1.576-.02A6.793,6.793,0,0,0,14.633,11.9a12.9,12.9,0,0,1-5.308,1.339ZM17.092,9.38v1.542h.223c.7,0,1.4.009,2.094,0a.764.764,0,0,0,.76-.707c.024-.271,0-.546,0-.83ZM9.3,17.126H7.781v1.542H9.3ZM20.964,1.559a.847.847,0,0,0-.786.812.775.775,0,1,0,1.551.02.851.851,0,0,0-.765-.832M9.312,24.163a.775.775,0,1,0-.774.777.8.8,0,0,0,.774-.777" transform="translate(0 0)" fill="#e40246"/>
    </g>
  </g>
</svg>
