<svg id="Group_965" data-name="Group 965" xmlns="http://www.w3.org/2000/svg" xmlns:xlink="http://www.w3.org/1999/xlink" width="31.963" height="27.125" viewBox="0 0 31.963 27.125">
  <defs>
    <clipPath id="clip-path">
      <rect id="Rectangle_44" data-name="Rectangle 44" width="31.963" height="27.125" fill="#e40246"/>
    </clipPath>
  </defs>
  <g id="Group_964" data-name="Group 964" transform="translate(0 0)" clip-path="url(#clip-path)">
    <path id="Path_225" data-name="Path 225" d="M27.1,18.122c.32,0,.611.024.9-.005a.951.951,0,0,0,.789-.974q.008-2.434,0-4.869a.472.472,0,0,0-.167-.326,2.119,2.119,0,0,1,1.2-3.842,2.11,2.11,0,0,1,1.316,3.789.457.457,0,0,0-.223.429c.01,1.581.005,3.163.005,4.745a3.1,3.1,0,0,1-2.543,3.148,8.713,8.713,0,0,1-1.265.07v.7q0,1.982,0,3.964a2.059,2.059,0,0,1-1.584,2.107,2.51,2.51,0,0,1-.676.063q-11.284,0-22.568,0a2.044,2.044,0,0,1-2.162-1.46,2.544,2.544,0,0,1-.1-.7Q0,14.97,0,4.982a2.076,2.076,0,0,1,2.16-2.153c.468,0,.936.006,1.4-.006.08,0,.217-.072.228-.131a1.616,1.616,0,0,1,.866-1.039A8.73,8.73,0,0,1,7.521.595a29.894,29.894,0,0,1,7.83-.547,22.707,22.707,0,0,1,4.934.729A6.512,6.512,0,0,1,22.778,1.9a1.317,1.317,0,0,1,.525.778c.012.062.163.137.252.14.457.014.915.006,1.373.007A2.079,2.079,0,0,1,27.095,5q0,5.915,0,11.83v1.287M16.693,11.1c0-1.5,0-2.994,0-4.492,0-.718-.256-.97-.973-.97q-2.166,0-4.332,0c-.725,0-.981.246-.982.958q0,4.46,0,8.921c0,.662.263.919.923.92H15.7c.764,0,1-.231,1-1q0-2.168,0-4.335m-8.387-.045V6.624c0-.708-.269-.984-.971-.985q-2.184,0-4.367,0C2.292,5.64,2,5.933,2,6.6q0,4.463,0,8.926a.8.8,0,0,0,.918.912q2.247,0,4.494,0c.614,0,.894-.279.894-.888q0-2.247,0-4.494m10.486-.012q0,2.277,0,4.554a.756.756,0,0,0,.846.84q2.292,0,4.584,0a.779.779,0,0,0,.874-.857q.005-4.537,0-9.075a.781.781,0,0,0-.842-.864c-1.537-.011-3.075-.013-4.613,0-.589.005-.85.311-.851.91q0,2.245,0,4.491M11.268,22.625v0q3.76,0,7.519,0a1,1,0,0,0,1.006-.685A1.078,1.078,0,0,0,18.66,20.5c-1.518-.013-3.036,0-4.554,0H9.428c-1.871,0-3.743-.009-5.614.005a1.052,1.052,0,0,0-1.069,1.309,1.039,1.039,0,0,0,1.066.808q3.728,0,7.457,0m10.4.057c0,.436.016.873,0,1.308-.042.936.154,1.026,1.035,1,.416-.011.632-.179.638-.593q.024-1.682,0-3.363c-.007-.468-.185-.6-.666-.6h-.436c-.393,0-.563.17-.566.568,0,.56,0,1.121,0,1.681m3.438.7a.8.8,0,1,0,.785.839.855.855,0,0,0-.785-.839" transform="translate(0 0)" fill="#e40246"/>
    <path id="Path_226" data-name="Path 226" d="M27.986,17.055c.282.047.53.071.769.131a.526.526,0,0,1,.416.7c-.076.276-.309.358-.673.3a6.042,6.042,0,0,0-1.015-.066.474.474,0,0,0-.49.358.447.447,0,0,0,.287.528c.314.153.638.285.959.425a1.982,1.982,0,0,1,1.219,1.03,1.667,1.667,0,0,1-1.2,2.19c-.264.06-.286.172-.31.392a.837.837,0,0,1-.231.47.346.346,0,0,1-.6-.154,3.07,3.07,0,0,1-.085-.539c-.3-.066-.625-.12-.94-.208a.528.528,0,0,1-.439-.665c.1-.328.348-.433.739-.352.332.068.672.1,1.009.138a.514.514,0,0,0,.186-.011c.259-.066.526-.165.573-.454a.566.566,0,0,0-.378-.613c-.413-.186-.836-.348-1.243-.546a1.455,1.455,0,0,1-.6-2.315,2.3,2.3,0,0,1,.9-.571c.237-.092.292-.188.284-.415-.011-.341.154-.516.439-.514a.386.386,0,0,1,.426.394c.01.112,0,.226,0,.362" transform="translate(-14 -8.922)" fill="#e40246"/>
    <path id="Path_227" data-name="Path 227" d="M8.954,19.8a1.265,1.265,0,0,1,1.417.158,1.321,1.321,0,0,1,.365,1.543,1.347,1.347,0,0,1-1.432.758,1.255,1.255,0,0,1-1.045-1.18,4.055,4.055,0,0,1,.182-.8c.02-.09.051-.21.01-.274a6.956,6.956,0,0,1-1-2.573A12.179,12.179,0,0,0,7.2,20.778c.815.346,1.14.87.99,1.592a1.367,1.367,0,0,1-1.264,1.015,1.361,1.361,0,0,1-1.289-1.06c-.123-.717.207-1.229,1.058-1.56,0-.594-.019-1.216,0-1.837a6.617,6.617,0,0,1,.494-2.478,1.487,1.487,0,0,1,.249-.425.4.4,0,0,1,.33-.125.377.377,0,0,1,.164.3A6.265,6.265,0,0,0,8.508,19c.128.268.29.52.446.8" transform="translate(-3.07 -8.7)" fill="#e40246"/>
    <path id="Path_228" data-name="Path 228" d="M44.621,23.839c-.163-.043-.468-.13-.778-.2a.767.767,0,0,0-.3.031c-.048.01-.091.067-.136.068-.195.007-.467.076-.564-.022a.609.609,0,0,1-.007-.556.715.715,0,0,0,.023-.627,2.635,2.635,0,0,1,.483-2.486,3.183,3.183,0,0,1,2.67-1.41.95.95,0,0,1,.246.024,1.381,1.381,0,0,0,1.187.007c.315-.181.616.129.446.46a1.257,1.257,0,0,0-.043,1.007,2.589,2.589,0,0,1-.536,2.275,3.287,3.287,0,0,1-2.694,1.425" transform="translate(-23.39 -10.192)" fill="#e40246"/>
  </g>
</svg>
