<svg id="Group_963" data-name="Group 963" xmlns="http://www.w3.org/2000/svg" xmlns:xlink="http://www.w3.org/1999/xlink" width="26.785" height="26.783" viewBox="0 0 26.785 26.783">
  <defs>
    <clipPath id="clip-path">
      <rect id="Rectangle_43" data-name="Rectangle 43" width="26.785" height="26.783" transform="translate(0 0)" fill="#e40046"/>
    </clipPath>
  </defs>
  <g id="Group_962" data-name="Group 962" transform="translate(0 0)" clip-path="url(#clip-path)">
    <path id="Path_199" data-name="Path 199" d="M26.784,12.651v1.612a.757.757,0,0,0-.022.119,9.579,9.579,0,0,1-.286,1.994,13.524,13.524,0,0,1-4.745,7.53,12.058,12.058,0,0,1-2.689,1.65,12.77,12.77,0,0,1-5.224,1.228,14.429,14.429,0,0,1-3.346-.3A13.306,13.306,0,0,1,2.721,21.5a12.832,12.832,0,0,1-2.7-7.285,13.23,13.23,0,0,1,.337-3.981A13.424,13.424,0,0,1,6.238,2.054,12.584,12.584,0,0,1,10.579.295,11.028,11.028,0,0,1,12.681,0c.469-.008.937.015,1.406.024a10.371,10.371,0,0,1,2.2.272,13.329,13.329,0,0,1,7.853,5.087,13.048,13.048,0,0,1,2.6,6.684c.018.194.032.388.048.582m-13.4-9.52A10.272,10.272,0,1,0,23.671,13.577,10.255,10.255,0,0,0,13.383,3.131" transform="translate(0 0)" fill="#e40046"/>
    <path id="Path_200" data-name="Path 200" d="M27.99,31.2c-.109,0-.218,0-.327,0a.362.362,0,0,0-.307.136.891.891,0,0,1-.955.211.934.934,0,0,1-.583-.82.922.922,0,0,1,.581-.834.891.891,0,0,1,.965.219.351.351,0,0,0,.271.13c.241,0,.482,0,.724,0a.238.238,0,0,0,.247-.184,2.349,2.349,0,0,1,1.483-1.476c.111-.04.169-.1.168-.212,0-.277,0-.554-.013-.831a.272.272,0,0,0-.092-.169.92.92,0,0,1-.245-.972.9.9,0,0,1,.827-.6.9.9,0,0,1,.583,1.582.253.253,0,0,0-.087.157c-.009.291-.011.582,0,.872a.213.213,0,0,0,.118.153,2.432,2.432,0,0,1,1.55,1.557.189.189,0,0,0,.133.109c.3.008.608.006.911,0a.266.266,0,0,0,.144-.088.872.872,0,0,1,.853-.276.886.886,0,0,1,.7.674.9.9,0,0,1-1.572.748.242.242,0,0,0-.167-.072c-.277-.008-.555,0-.833,0a.169.169,0,0,0-.178.133,2.364,2.364,0,0,1-1.531,1.533.162.162,0,0,0-.131.166c0,.286,0,.573.005.859a.264.264,0,0,0,.081.162.909.909,0,0,1,.237,1.043.882.882,0,0,1-1.669-.557.949.949,0,0,1,.3-.495.209.209,0,0,0,.069-.139c.007-.295.011-.59,0-.885a.214.214,0,0,0-.122-.149,2.4,2.4,0,0,1-1.537-1.548.162.162,0,0,0-.172-.123H27.99v0" transform="translate(-17.339 -17.323)" fill="#e40046"/>
    <path id="Path_201" data-name="Path 201" d="M16.072,51.962c.132-.077.26-.153.389-.227.328-.186.656-.373.986-.555a.2.2,0,0,1,.251,0c.035.028.134,0,.188-.025.324-.174.639-.365.966-.534.475-.246.326-.293.7.132.132.149.251.309.4.491-.3.289-.592.573-.884.859-.087.086-.169.178-.249.272-.057.068-.122.132-.072.242.015.034-.02.109-.054.143q-.517.525-1.042,1.041c-.059.058-.128.1-.209.01A13.228,13.228,0,0,1,16.1,52.036a.623.623,0,0,1-.032-.073" transform="translate(-10.793 -33.869)" fill="#e40046"/>
    <path id="Path_202" data-name="Path 202" d="M12.19,40.848c.569,0,1.124,0,1.678,0,.033,0,.091.019.095.037.038.185.192.143.3.145.432.011.864.007,1.3.009.063,0,.125.006.191.009.049.329.1.646.137.966,0,.036-.067.1-.116.119-.307.1-.617.182-.926.27-.17.049-.341.093-.509.146-.072.023-.138.053-.135.16,0,.04-.081.1-.136.121-.339.1-.681.19-1.022.283-.123.033-.249.053-.368.095s-.177,0-.2-.118c-.06-.312-.139-.621-.179-.935-.053-.414-.077-.832-.113-1.248a.444.444,0,0,1,0-.062" transform="translate(-8.184 -27.432)" fill="#e40046"/>
    <path id="Path_203" data-name="Path 203" d="M40.843,61.8c0-.556,0-1.1,0-1.638,0-.075.016-.139.111-.163.031-.008.061-.085.062-.131.011-.482.017-.964.023-1.446,0-.058,0-.117,0-.178.337-.053.663-.107.99-.149.031,0,.091.061.1.1.123.417.239.837.359,1.255a1.909,1.909,0,0,0,.085.244c.015.033.056.082.08.079.128-.015.158.076.182.162q.183.676.357,1.354c.029.112.01.2-.131.231a11.335,11.335,0,0,1-2.172.279.362.362,0,0,1-.051,0" transform="translate(-27.429 -39.013)" fill="#e40046"/>
    <path id="Path_204" data-name="Path 204" d="M51.962,57.738c-.26-.462-.514-.909-.763-1.358-.047-.085-.1-.172,0-.273.024-.026,0-.116-.022-.164-.134-.253-.277-.5-.413-.752-.1-.18-.19-.362-.288-.542a.12.12,0,0,1,.032-.177c.212-.164.424-.329.633-.5a.123.123,0,0,1,.189.011q.4.383.8.763c.089.084.18.167.271.249.065.059.128.111.231.061.029-.014.1.018.131.049.362.358.72.721,1.079,1.082.063.063.029.117-.02.162a5.677,5.677,0,0,1-.468.418c-.424.312-.859.61-1.29.913a1.03,1.03,0,0,1-.1.053" transform="translate(-33.878 -36.223)" fill="#e40046"/>
    <path id="Path_205" data-name="Path 205" d="M61.86,35.881H61.1c-.282,0-.565,0-.847-.006-.095,0-.2.012-.233-.132-.006-.03-.108-.054-.166-.055-.478-.011-.956-.016-1.434-.024-.05,0-.1-.005-.155-.008-.047-.323-.1-.64-.134-.959,0-.034.063-.1.108-.111.3-.094.6-.178.9-.266.183-.054.366-.106.547-.163a.152.152,0,0,0,.129-.15c0-.044.079-.1.134-.121.316-.1.636-.185.954-.274.144-.04.291-.069.434-.114.1-.033.156,0,.179.1a6.971,6.971,0,0,1,.164.7c.07.517.118,1.038.178,1.582" transform="translate(-39.04 -22.488)" fill="#e40046"/>
    <path id="Path_206" data-name="Path 206" d="M17.135,28.564c-.073.169-.145.33-.212.493q-.074.182-.136.37c-.026.078-.06.109-.149.086-.475-.12-.951-.234-1.427-.35-.1-.025-.2-.045-.253.081-.011.024-.081.041-.116.032-.51-.131-1.017-.269-1.527-.4-.115-.03-.084-.1-.059-.168.168-.445.332-.893.514-1.333.093-.226.222-.437.331-.657.04-.081.085-.1.17-.055.4.234.8.463,1.2.7a.3.3,0,0,1,.19.26c0,.056.089.123.152.161.385.233.773.459,1.161.688l.16.1" transform="translate(-8.886 -17.889)" fill="#e40046"/>
    <path id="Path_207" data-name="Path 207" d="M60.412,46.813a14.432,14.432,0,0,1-.939,2.225c-.2-.109-.376-.2-.551-.307-.278-.163-.557-.324-.828-.5-.057-.037-.076-.13-.12-.192a.657.657,0,0,0-.161-.188c-.34-.21-.687-.408-1.031-.611l-.289-.169c.124-.3.245-.6.368-.9.033-.078.093-.082.17-.062.42.111.841.222,1.264.324.131.032.272.085.4-.046.027-.029.107-.025.156-.012.5.13,1,.266,1.5.4a.551.551,0,0,1,.067.033" transform="translate(-37.94 -30.962)" fill="#e40046"/>
    <path id="Path_208" data-name="Path 208" d="M47.166,17.075c-.31-.119-.612-.228-.907-.354-.034-.015-.053-.126-.039-.184.069-.305.151-.607.225-.911.044-.18.086-.362.12-.544.008-.041-.01-.118-.037-.13-.109-.049-.1-.121-.073-.212.138-.516.273-1.034.415-1.573.222.072.433.123.631.208.5.214.993.444,1.489.666.1.046.115.105.058.2-.234.395-.461.793-.695,1.188a.289.289,0,0,1-.251.18c-.057,0-.126.086-.164.148-.234.39-.46.783-.689,1.175l-.084.143" transform="translate(-31.037 -8.842)" fill="#e40046"/>
    <path id="Path_209" data-name="Path 209" d="M28.88,60.421c-.4-.153-.77-.282-1.129-.431-.335-.139-.661-.3-.993-.446-.108-.048-.121-.105-.06-.209.227-.383.443-.772.669-1.156.064-.109.123-.231.294-.228.05,0,.115-.084.15-.143.237-.4.47-.8.7-1.2l.076-.129c.163.07.323.139.485.207a1.782,1.782,0,0,0,.317.122c.134.027.162.1.136.212-.084.357-.172.714-.259,1.071-.021.088-.05.175-.067.264-.02.11-.056.222.058.314.028.022.031.1.02.141-.127.523-.259,1.045-.4,1.611" transform="translate(-17.906 -37.931)" fill="#e40046"/>
    <path id="Path_210" data-name="Path 210" d="M35.742,15.766c-.339.043-.666.088-.995.12-.031,0-.088-.068-.1-.114q-.2-.707-.386-1.417c-.025-.093-.04-.166-.169-.158-.041,0-.11-.087-.128-.146-.1-.321-.19-.644-.277-.968-.038-.144-.059-.293-.093-.439-.022-.1.01-.147.107-.164.469-.08.937-.174,1.408-.239.273-.037.551-.03.844-.043v.384c0,.373,0,.747,0,1.12,0,.116.035.26-.144.307-.026.007-.043.1-.044.146-.009.478-.013.955-.019,1.433,0,.054,0,.107,0,.176" transform="translate(-22.556 -8.193)" fill="#e40046"/>
    <path id="Path_211" data-name="Path 211" d="M24.283,19.233l-.858.659c-.285-.289-.564-.575-.846-.859-.09-.09-.184-.176-.279-.26-.071-.062-.137-.134-.251-.067-.026.015-.1-.017-.13-.048q-.524-.517-1.04-1.042a.148.148,0,0,1,.015-.244,12.538,12.538,0,0,1,1.774-1.321,1,1,0,0,1,.066.09q.388.665.774,1.33c.039.067.063.122-.016.188-.027.023-.026.112,0,.155.091.188.19.371.294.553.163.288.332.572.5.866" transform="translate(-13.983 -10.779)" fill="#e40046"/>
    <path id="Path_212" data-name="Path 212" d="M53.771,23.335c.312-.3.62-.586.925-.879a1.729,1.729,0,0,0,.225-.256.655.655,0,0,0,.053-.184.4.4,0,0,1,.057-.159c.358-.369.721-.733,1.082-1.1.077-.078.123-.016.165.035.279.342.563.68.831,1.03.159.209.292.439.437.658.064.1.059.162-.057.226-.39.214-.773.442-1.162.658-.1.056-.2.14-.334.028-.029-.025-.131.013-.187.044-.389.216-.775.438-1.161.659-.2.112-.2.114-.336-.067-.167-.215-.334-.431-.537-.694" transform="translate(-36.111 -13.915)" fill="#e40046"/>
    <path id="Path_213" data-name="Path 213" d="M19.43,37.049c-.557,0-1.1,0-1.637,0-.1,0-.149-.048-.134-.155.056-.39.1-.782.168-1.171.028-.171.066-.187.229-.145.469.122.936.249,1.405.372.074.019.123.042.109.135-.05.323-.094.646-.14.965" transform="translate(-11.858 -23.88)" fill="#e40046"/>
    <path id="Path_214" data-name="Path 214" d="M41.487,19.423c0-.548,0-1.08,0-1.611,0-.159.038-.178.194-.157.364.05.728.095,1.09.156.222.037.228.057.174.266-.118.456-.239.911-.36,1.366-.017.066-.031.13-.131.115-.323-.049-.646-.091-.971-.136" transform="translate(-27.861 -11.852)" fill="#e40046"/>
    <path id="Path_215" data-name="Path 215" d="M58.084,42.523l.147-1.07h1.8c-.071.462-.14.917-.211,1.372-.024.151-.141.1-.224.088-.213-.043-.424-.1-.635-.154-.289-.075-.577-.154-.881-.235" transform="translate(-39.008 -27.839)" fill="#e40046"/>
    <path id="Path_216" data-name="Path 216" d="M19.308,47.992a6.624,6.624,0,0,1-.56-1.313c-.021-.074-.011-.127.082-.151q.731-.187,1.459-.386a.111.111,0,0,1,.156.075c.107.25.216.5.329.747a.111.111,0,0,1-.05.167c-.47.283-.938.57-1.417.861" transform="translate(-12.585 -30.982)" fill="#e40046"/>
    <path id="Path_217" data-name="Path 217" d="M31.352,18.51c.068.239.129.434.179.63.087.343.165.688.251,1.031.018.074.009.121-.067.15-.262.1-.524.2-.783.312-.074.031-.11.024-.15-.049q-.369-.668-.747-1.331c-.048-.085-.048-.139.048-.181.414-.183.827-.367,1.27-.564" transform="translate(-20.149 -12.431)" fill="#e40046"/>
    <path id="Path_218" data-name="Path 218" d="M22.2,25c.109.1.224.2.333.312.254.255.507.51.755.771.145.153.137.156.007.312-.154.185-.3.375-.451.566a.121.121,0,0,1-.183.033c-.425-.245-.853-.485-1.28-.726-.07-.039-.116-.081-.064-.17a4.875,4.875,0,0,1,.833-1.075A.211.211,0,0,1,22.2,25" transform="translate(-14.303 -16.791)" fill="#e40046"/>
    <path id="Path_219" data-name="Path 219" d="M52.468,22.184l-1.19,1.268c-.273-.216-.53-.415-.778-.625-.028-.024-.022-.123,0-.168.2-.359.4-.713.6-1.068a1.074,1.074,0,0,1,.143-.214.178.178,0,0,1,.149-.044,5.334,5.334,0,0,1,1.071.851" transform="translate(-33.902 -14.324)" fill="#e40046"/>
    <path id="Path_220" data-name="Path 220" d="M48.029,58.014a5.992,5.992,0,0,1-1.286.544c-.1.025-.15.008-.176-.1-.117-.49-.241-.977-.363-1.466a.108.108,0,0,1,.077-.146c.282-.112.562-.23.864-.354l.885,1.524" transform="translate(-31.025 -37.937)" fill="#e40046"/>
    <path id="Path_221" data-name="Path 221" d="M58.116,29.805a5.676,5.676,0,0,1,.553,1.31c.021.083,0,.127-.087.149-.5.127-.991.258-1.487.382a.143.143,0,0,1-.121-.062c-.116-.256-.225-.515-.326-.777a.153.153,0,0,1,.047-.139c.466-.288.937-.57,1.421-.862" transform="translate(-38.04 -20.016)" fill="#e40046"/>
    <path id="Path_222" data-name="Path 222" d="M26.216,56.051l-1.194-.895,1.245-1.289.833.64-.884,1.543" transform="translate(-16.804 -36.176)" fill="#e40046"/>
    <path id="Path_223" data-name="Path 223" d="M36.058,58.1l1.059.135v1.8L36,59.882c-.009,0-.017-.005-.026-.007-.361-.069-.361,0-.267-.408.1-.45.231-.894.354-1.366" transform="translate(-23.942 -39.019)" fill="#e40046"/>
    <path id="Path_224" data-name="Path 224" d="M53.871,51.082l.615-.838a.432.432,0,0,1,.066.026c.447.261.893.524,1.341.782.081.047.1.092.049.173a4.817,4.817,0,0,1-.821,1.085l-1.25-1.229" transform="translate(-36.178 -33.743)" fill="#e40046"/>
  </g>
</svg>
