<svg id="Group_967" data-name="Group 967" xmlns="http://www.w3.org/2000/svg" xmlns:xlink="http://www.w3.org/1999/xlink" width="25.62" height="26.828" viewBox="0 0 25.62 26.828">
  <defs>
    <clipPath id="clip-path">
      <rect id="Rectangle_45" data-name="Rectangle 45" width="25.62" height="26.828" fill="#e40246"/>
    </clipPath>
  </defs>
  <g id="Group_966" data-name="Group 966" clip-path="url(#clip-path)">
    <path id="Path_229" data-name="Path 229" d="M0,17.678v-1.2l.038.185c.019-.1.017-.193.028-.287a3.306,3.306,0,0,1,.25-.9,2.14,2.14,0,0,1,1.2-1.212c1.183-.474,2.343-1,3.478-1.579a26.934,26.934,0,0,0,4.1-2.5,16.341,16.341,0,0,0,2.439-2.226A10.068,10.068,0,0,0,13.7,3.948c.159-.582.275-1.176.418-1.763a5.085,5.085,0,0,1,.388-1.175A1.717,1.717,0,0,1,15.769.031c.011,0,.019-.021.028-.032h.465l-.028.023c.11.025.221.043.328.076A4.27,4.27,0,0,1,17.781.74a10.587,10.587,0,0,1,1.988,1.909A24.15,24.15,0,0,1,22,5.873a26.329,26.329,0,0,1,1.788,3.653c.293.738.58,1.479.808,2.241a24.072,24.072,0,0,1,.944,4.393,11.156,11.156,0,0,1,.042,2.266,5.4,5.4,0,0,1-.335,1.467,1.6,1.6,0,0,1-1.683,1.078,2.394,2.394,0,0,1-1.054-.312c-.449-.24-.887-.5-1.322-.764a14.711,14.711,0,0,0-2.1-1.108,11.025,11.025,0,0,0-3.949-.77c-.558-.013-1.114.021-1.67.063a2.713,2.713,0,0,0-.978.222,1.354,1.354,0,0,0-.621.545,1.072,1.072,0,0,0-.006,1.027c.428.969.858,1.937,1.273,2.912a1.574,1.574,0,0,0,.654.755c.173.1.345.213.511.328a.964.964,0,0,1-.121,1.683c-.178.088-.367.154-.553.226-.878.336-1.755.673-2.636,1a.713.713,0,0,1-.321.043,1.248,1.248,0,0,1-.756-.424,3.671,3.671,0,0,1-.689-1.108c-.529-1.23-1.068-2.456-1.6-3.686a.714.714,0,0,0-.508-.435,2.287,2.287,0,0,0-.3-.057,2.071,2.071,0,0,1-1.533-.842.089.089,0,0,0-.119-.04c-.312.108-.631.2-.937.321a2.193,2.193,0,0,1-1.562.048A4.076,4.076,0,0,1,.494,18.892a2.433,2.433,0,0,1-.424-1.36c0-.037,0-.074-.006-.11H.05L0,17.678m23.022-1.153a14.2,14.2,0,0,0-.329-2.809,18.823,18.823,0,0,0-.928-3.045A23.821,23.821,0,0,0,20.2,7.464a17.991,17.991,0,0,0-1.969-2.772,10.287,10.287,0,0,0-1.2-1.2,2.864,2.864,0,0,0-.467-.291.134.134,0,0,0-.2.069.875.875,0,0,0-.1.256,7.952,7.952,0,0,0-.107.832,13.341,13.341,0,0,0,.187,2.805c.088.555.212,1.1.344,1.651A18.042,18.042,0,0,0,17.8,11.947a17.359,17.359,0,0,0,1.751,3.016A13.6,13.6,0,0,0,21.113,16.8a6.5,6.5,0,0,0,.941.809,4,4,0,0,0,.55.29.157.157,0,0,0,.237-.09,1.2,1.2,0,0,0,.094-.259,4.808,4.808,0,0,0,.088-1.022" transform="translate(0 0.001)" fill="#e40246"/>
  </g>
</svg>
